# xmcd
#
# Track frame offsets: 
#        150
#        15438
#        34333
#        48886
#        64922
#        82719
#        97190
#        112171
#        129934
#        144407
#
# Disc length: 2129 seconds
#
# Revision: 1
# Processed by: cddbd v1.5.2PL0 Copyright (c) Steve Scherf et al.
# Submitted via: ExactAudioCopy v1.0b3
#
DISCID=7e084f0a
DTITLE=The Marshall Tucker Band - Tuckerized
DYEAR=1982
DGENRE=Southern Rock
TTITLE0=Reachin' For A Little Bit More
TTITLE1=If You Think You're Hurtin' Me (Girl You're Crazy)
TTITLE2=Even A Fool Would Let Go
TTITLE3=Sea, Dreams And Fairytales
TTITLE4=Anyway The Wind Blows Rider
TTITLE5=Mr. President
TTITLE6=Heartbroke
TTITLE7=Unforgiven
TTITLE8=Sweet Elaine
TTITLE9=Ace High Love
EXTD=
EXTT0=
EXTT1=
EXTT2=
EXTT3=
EXTT4=
EXTT5=
EXTT6=
EXTT7=
EXTT8=
EXTT9=
PLAYORDER=
